
<svg width="38px" height="38px" viewBox="0 0 38 38" version="1.1" xmlns="http://www.w3.org/2000/svg" xmlns:xlink="http://www.w3.org/1999/xlink">
    <!-- Generator: sketchtool 41.2 (35397) - http://www.bohemiancoding.com/sketch -->
    <title>41351265-3188-4B78-B68D-0DA9FF22EEA6</title>
    <desc>Created with sketchtool.</desc>
    <defs></defs>
    <g id="My-Account" stroke="none" stroke-width="1" fill="none" fill-rule="evenodd">
        <g transform="translate(-1148.000000, -17.000000)" stroke="rgba(200,200,200,0.7)" stroke-width="0.5" fill="rgba(200,200,200,0.7)">
            <g id="Navigation-Bar" transform="translate(135.000000, 0.000000)">
                <g id="Sign-In" transform="translate(1004.000000, 0.000000)">
                    <path d="M28,18 C18.0674027,18 10,26.037263 10,35.9327522 C10,41.6567002 12.709295,46.7478329 16.9075,50.0323786 C17.1129485,50.1931149 17.3250129,50.3512229 17.5375,50.5031133 C17.5983753,50.5475313 17.6557686,50.5938509 17.7175,50.637609 C17.8072674,50.7000845 17.8965482,50.7560598 17.9875,50.8169365 C18.1796982,50.9475924 18.3727814,51.0738863 18.5725,51.1980075 C18.618755,51.2264216 18.6609693,51.2596631 18.7075,51.2876712 C18.7908429,51.3384016 18.8704353,51.3950246 18.955,51.4445828 C19.1073808,51.5329934 19.2723263,51.6071203 19.4275,51.6911582 C19.6791141,51.8289125 19.9314935,51.9675076 20.1925,52.0946451 C20.4582009,52.2240686 20.7278128,52.3354791 21.0025,52.4533001 C23.2526786,53.4184688 25.7842202,54 28.405,54 C29.7716327,54 31.1686919,53.7239446 32.5,53.3051059 C35.1985895,52.6124999 37.6459271,51.2931601 39.7,49.5392279 C39.7851004,49.4723954 39.8503965,49.4230983 39.925,49.3599004 C39.9690006,49.3211004 40.0163846,49.287041 40.06,49.2478207 C40.0768862,49.2326847 40.0887611,49.2179225 40.105,49.2029888 C40.1917247,49.1244512 40.2673305,49.0366001 40.3525,48.9564134 C43.8260846,45.6860289 46,41.0639194 46,35.9327522 C46,26.037263 37.9325973,18 28,18 L28,18 Z M28,19.4346202 C37.1543637,19.4346202 44.56,26.8125891 44.56,35.9327522 C44.56,40.4586876 42.746225,44.5651387 39.79,47.5442092 C38.3881643,46.489191 36.7137381,45.9171369 35.29,45.3474471 C33.7297125,44.723119 32.6189001,44.1083707 32.275,43.2851806 C32.198505,42.3519451 32.2026472,41.6148688 32.2075,40.7297634 C32.3011158,40.6282791 32.4351323,40.5582366 32.5225,40.4383562 C32.7198203,40.167606 32.9091184,39.8345475 33.085,39.4744707 C33.3917956,38.8463768 33.6128241,38.0930685 33.7375,37.3449564 C33.9638666,37.2285657 34.2039952,37.2001918 34.39,36.9638854 C34.7373258,36.5226307 34.9814296,35.8953775 35.0875,35.0136986 C35.1824054,34.2288603 34.9195931,33.7109459 34.5925,33.3100872 C34.9440335,32.1726048 35.3930579,30.3332274 35.245,28.4458281 C35.1641894,27.4156805 34.8983027,26.3869595 34.2775,25.5317559 C33.7086266,24.7480888 32.7863289,24.1752537 31.6225,23.9402242 C30.866729,22.9633013 29.503617,22.5952677 27.9325,22.5952677 L27.91,22.5952677 C24.5463674,22.65696 22.3986909,24.0116155 21.475,26.1145704 C20.5953062,28.1173582 20.7923457,30.6483632 21.43,33.2652553 C21.0863483,33.6650273 20.8152374,34.2037049 20.9125,35.0136986 C21.0189527,35.8952304 21.262847,36.5226845 21.61,36.9638854 C21.8006697,37.20621 22.0525221,37.2286073 22.285,37.3449564 C22.4126243,38.0951401 22.6224222,38.8477806 22.9375,39.4744707 C23.118598,39.8346752 23.321548,40.168616 23.5225,40.4383562 C23.6114762,40.5577897 23.7431966,40.6291764 23.8375,40.7297634 C23.842252,41.6146436 23.8465648,42.3517127 23.77,43.2851806 C23.4274132,44.1042397 22.3138288,44.7030157 20.755,45.3250311 C19.3187015,45.898154 17.6244126,46.4804534 16.21,47.5442092 C13.2537754,44.5651387 11.44,40.4586876 11.44,35.9327522 C11.44,26.8125891 18.8456363,19.4346202 28,19.4346202 L28,19.4346202 Z M27.9325,24.0298879 C27.9415648,24.0298879 27.9459784,24.0298552 27.955,24.0298879 C29.4046264,24.0351458 30.3427007,24.4587972 30.61,24.9265255 L30.79,25.2179328 L31.1275,25.2627646 C32.1289854,25.4014171 32.7026627,25.8034507 33.1075,26.3611457 C33.5123373,26.9188407 33.7374906,27.6973158 33.805,28.5579078 C33.9400194,30.2790912 33.4431928,32.2820161 33.13,33.2204234 L32.95,33.7808219 L33.445,34.0722291 C33.4139536,34.0534571 33.7195439,34.2610051 33.6475,34.856787 C33.5627704,35.5610808 33.3944942,35.9251501 33.265,36.0896638 C33.1355058,36.2541774 33.0680037,36.2461263 33.0625,36.2465753 L32.455,36.2914072 L32.3875,36.8742217 C32.3207632,37.4949065 32.0702975,38.2525072 31.78,38.8468244 C31.6348516,39.143983 31.4845574,39.40535 31.3525,39.5865504 C31.2204426,39.7677509 31.0809902,39.8691972 31.15,39.8331258 L30.7675,40.0348692 L30.7675,40.4607721 C30.7675,41.4991896 30.7256752,42.3515993 30.835,43.5541719 L30.835,43.6438356 L30.88,43.7334994 C31.4731259,45.3239085 33.1104837,46.0139573 34.75,46.6699875 C36.0952005,47.2082513 37.4519757,47.779984 38.575,48.5305106 C38.3389019,48.7190498 38.252049,48.8299 37.9,49.0684932 C37.1886998,49.5505607 36.2586736,50.1152917 35.2225,50.637609 C34.2124638,51.1467499 33.0980046,51.6112835 31.96,51.9601494 C31.9305506,51.9691775 31.8994739,51.9737023 31.87,51.9825654 C30.6273916,52.2786645 29.3344502,52.4308842 28,52.4308842 C26.4228155,52.4308842 24.8994395,52.2124181 23.455,51.8032379 C21.1417624,51.0905336 19.0525082,49.9291978 17.4475,48.5305106 C18.5785689,47.7804352 19.9446551,47.2088122 21.295,46.6699875 C22.934206,46.0158997 24.5727633,45.3196865 25.165,43.7334994 L25.1875,43.6438356 L25.21,43.5541719 C25.3192996,42.351892 25.2775,41.4995139 25.2775,40.4607721 L25.2775,40.0348692 L24.895,39.8331258 C24.9606784,39.867363 24.805828,39.7688763 24.67,39.5865504 C24.534172,39.4042281 24.369382,39.143945 24.22,38.8468244 C23.9212367,38.2525832 23.6782778,37.4884371 23.6125,36.8742217 L23.545,36.2914072 L22.9375,36.2465753 C22.932028,36.2461292 22.864487,36.254229 22.735,36.0896638 C22.605513,35.9250963 22.4375673,35.5612279 22.3525,34.856787 C22.2809421,34.2608595 22.5860514,34.053399 22.555,34.0722291 L23.0275,33.7808219 L22.8925,33.2652553 C22.2146524,30.6662838 22.0973709,28.3027441 22.8025,26.6973848 C23.505647,25.0965393 24.9386061,24.0903763 27.9325,24.0298879 L27.9325,24.0298879 Z" id="Shape"></path>
                </g>
            </g>
        </g>
    </g>
</svg>